<?xml version="1.0" encoding="UTF-8"?>
<svg xmlns="http://www.w3.org/2000/svg" version="1.1" xmlns:serif="http://www.serif.com/" viewBox="0 0 48 48.1">
  <defs>
    <style>
      .cls-1 {
        fill-rule: evenodd;
      }
    </style>
  </defs>
  <!-- Generator: Adobe Illustrator 28.6.0, SVG Export Plug-In . SVG Version: 1.2.0 Build 709)  -->
  <g>
    <g id="Layer_1">
      <path class="cls-1" d="M5,13.6h38c.9,0,1.6-.7,1.6-1.6s-.7-1.6-1.6-1.6H5c-.9,0-1.6.7-1.6,1.6s.7,1.6,1.6,1.6Z"/>
      <path class="cls-1" d="M5,25.6h38c.9,0,1.6-.7,1.6-1.6s-.7-1.6-1.6-1.6H5c-.9,0-1.6.7-1.6,1.6s.7,1.6,1.6,1.6Z"/>
      <path class="cls-1" d="M5,37.6h38c.9,0,1.6-.7,1.6-1.6s-.7-1.6-1.6-1.6H5c-.9,0-1.6.7-1.6,1.6s.7,1.6,1.6,1.6Z"/>
    </g>
  </g>
</svg>