<?xml version="1.0" encoding="UTF-8"?>
<svg xmlns="http://www.w3.org/2000/svg" version="1.1" viewBox="0 0 108 108">
  <!-- Generator: Adobe Illustrator 28.7.1, SVG Export Plug-In . SVG Version: 1.2.0 Build 142)  -->
  <g>
    <g id="Layer_1">
      <path d="M73,64c-4,0-7.6,1.8-9.9,4.6l-16-9.7c.6-1.5,1-3.2,1-4.9s-.4-3.4-1-4.9l16-9.7c2.4,2.8,6,4.6,9.9,4.6,7.2,0,13-5.8,13-13s-5.8-13-13-13-13,5.8-13,13,.4,3.4,1,4.9l-16,9.7c-2.4-2.8-5.9-4.6-9.9-4.6-7.2,0-13,5.8-13,13s5.8,13,13,13,7.6-1.8,9.9-4.6l16,9.7c-.6,1.5-1,3.2-1,4.9,0,7.2,5.8,13,13,13s13-5.8,13-13-5.8-13-13-13h0ZM73,22c5,0,9,4,9,9s-4,9-9,9-9-4-9-9,4-9,9-9ZM35,63c-5,0-9-4-9-9s4-9,9-9,9,4,9,9-4,9-9,9ZM73,86c-5,0-9-4-9-9s4-9,9-9,9,4,9,9-4,9-9,9Z"/>
    </g>
  </g>
</svg>